<svg width="83.2" height="24" viewBox="0 0 208 60" fill="none" xmlns="http://www.w3.org/2000/svg"><path d="M135.704 24.0112V20.8304L128.536 19.8032V22.984L135.704 24.0112V24.0112zM128.536 25.1824V28.3632L135.704 29.3904V26.2096L128.536 25.1824V25.1824zM126.667 31.592H146.904V34.44H126.667zM82.856 31.592H100.97399999999999V34.44H82.856zM105.697 19.803H123.815V22.651H105.697zM105.697 38.018H123.815V40.866H105.697zM105.697 28.744H119.092V31.592H105.697zM149.749 31.592H169.986V34.44H149.749zM154.136 19.803H168.859V22.651H154.136z" fill="#191919"/><path d="M100.568 34.9712L100.978 34.504V31.5952H97.6788V33.2528C96.7188 34.3088 94.1876 37.0928 90.4756 40.8624H95.0804C98.53 37.2816 100.54 35 100.568 34.9712zM141.301 19.0896H138.078C137.995 25.512 137.906 29.128 136.75 31.656 135.595 34.184 133.074 36.2672 128.091 40.3408L127.451 40.8624H132.52C140.798 33.9792 141.122 32.4048 141.301 19.0896zM143.775 35.864H139.887L143.013 40.8656H146.901L143.775 35.864V35.864zM166.885 35.864H162.997L166.12 40.8656H170.008L166.885 35.864V35.864zM156.776 35.864H152.885L149.762 40.8656H153.65L156.776 35.864V35.864zM158.193 29.973H161.49200000000002V40.866H158.193zM81.1152 26.2512V29.9728C88.0464 26.4528 92.0976 22.9168 94.2896 18.3792H90.5104C88.68 21.2816 85.6848 23.7712 81.1152 26.2512z" fill="#191919"/><path d="M93.5948 18.9552L90.8652 20.7952C93.3868 24.5072 98.4396 27.6944 102.849 29.9504V26.2352C98.3948 23.8 95.166 21.2688 93.5948 18.9552zM89.2754 26.0848V29.2656L95.253 30.104V26.9264L89.2754 26.0848V26.0848zM165.896 19.8032V21.8C164.021 23.3168 160.229 25.8544 149.749 27.6176V30.6576C162.479 28.5808 166.821 24.9456 168.863 23.1152V19.8032H165.896z" fill="#191919"/><path d="M153.458 21.592L153.055 21.2944L150.315 22.9488L151.669 23.9952C153.909 25.6592 158.002 28.696 169.986 30.6544V27.6208C159.099 25.7808 155.464 23.08 153.458 21.592Z" fill="#191919"/><path d="M150.312 22.9488L153.083 24.7696 156.42 19.8032 153.371 18.3792 150.312 22.9488V22.9488zM105.697 19.803H108.99600000000001V40.865H105.697zM120.517 19.803H123.816V40.865H120.517z" fill="#191919"/><path d="M67.6912 48.3152H43.64C39.9793 48.3117 37.0106 45.3487 37 41.688V17.64C37.0035 13.9743 39.9743 11.0035 43.64 11H67.6912C71.3569 11.0035 74.3277 13.9743 74.3312 17.64V41.688C74.3206 45.3487 71.3519 48.3117 67.6912 48.3152Z" fill="#fff"/><path fill-rule="evenodd" clip-rule="evenodd" d="M43.64 48.3152H67.6912C71.3519 48.3117 74.3206 45.3487 74.3312 41.688V17.64C74.3277 13.9743 71.3569 11.0035 67.6912 11H43.64C39.9743 11.0035 37.0035 13.9743 37 17.64V41.688C37.0106 45.3487 39.9793 48.3117 43.64 48.3152ZM37.2816 17.64C37.2851 14.1293 40.1293 11.2837 43.64 11.2784H67.6912C71.2032 11.2819 74.0493 14.128 74.0528 17.64V41.688C74.0475 45.1987 71.2019 48.0429 67.6912 48.0464H43.64C40.1298 48.0429 37.2851 45.1982 37.2816 41.688V17.64Z" fill="#DDD"/><path d="M74.3312 39.7392L37 41.6912V19.5888L74.3312 17.64V39.7392V39.7392Z" fill="#FF373C"/><path d="M47.1726 25.8256V23.5696L42.0654 23.1056V25.3648L47.1726 25.8256V25.8256zM42.0654 26.9264V29.1856L47.1726 29.6496V27.3904L42.0654 26.9264V26.9264zM55.1504 32.8208L40.7344 33.5728V31.5504L55.1504 30.7952V32.8208 32.8208zM70.581 32.0144L56.165 32.7664V30.744L70.581 29.9888V32.0144 32.0144zM69.7806 23.6816L59.291 24.2288V22.2064L69.7806 21.656V23.6816 23.6816z" fill="#fff"/><path d="M51.1599 22.1232L48.8623 22.2416C48.8047 26.808 48.7407 29.3808 47.9023 31.2208 47.0639 33.0608 45.2847 34.632 41.7359 37.7136 41.5855 37.8384 41.4351 37.9728 41.2783 38.1072L44.8943 37.9184C50.8015 32.7184 51.0319 31.5888 51.1599 22.1232zM52.9203 33.9472L50.1523 34.0912 52.3763 37.5312 55.1475 37.384 52.9203 33.9472V33.9472zM68.3728 33.1408L65.6016 33.2848 67.8288 36.7216 70.5968 36.5776 68.3728 33.1408V33.1408zM61.1693 33.5152L58.3981 33.6624 56.1709 37.3296 58.9421 37.1856 61.1693 33.5152V33.5152zM64.5295 36.8944L62.1807 37.016V29.2784L64.5295 29.1536V36.8944 36.8944zM67.669 21.7552V23.176C66.3314 24.3216 63.6306 26.2672 56.165 27.912V30.0752C65.2338 28.1264 68.325 25.384 69.781 23.9952V21.656L67.669 21.7552z" fill="#fff"/><path d="M58.8052 23.4992L58.5204 23.304L56.5684 24.584L57.5284 25.2816C59.1284 26.3792 62.0372 28.3824 70.5748 29.3296V27.1664C62.8276 26.2672 60.2356 24.4848 58.8052 23.4992Z" fill="#fff"/><path d="M56.5645 24.5808L58.5389 25.7712L60.9165 22.12L58.7437 21.2208L56.5645 24.5808V24.5808Z" fill="#fff"/></svg>