<svg width="83.2" height="24" viewBox="0 0 208 59" fill="none" xmlns="http://www.w3.org/2000/svg"><path d="M43.5409 49.8771C38.8711 49.8771 35.123 46.129 35.123 41.4592V18.5407C35.123 13.8709 38.8711 10.1228 43.5409 10.1228H66.4595C71.1292 10.1228 74.8773 13.8709 74.8773 18.5407V41.4592C74.8773 46.129 71.1292 49.8771 66.4595 49.8771H43.5409V49.8771Z" fill="#fff"/><path d="M66.4593 10.2458C71.0061 10.2458 74.7542 13.9324 74.7542 18.5407V41.4593C74.7542 46.0061 71.0676 49.7542 66.4593 49.7542H43.5407C38.9939 49.7542 35.2458 46.0676 35.2458 41.4593V18.5407C35.2458 13.9939 38.9324 10.2458 43.5407 10.2458H66.4593V10.2458ZM66.4593 10H43.5407C38.8095 10 35 13.8095 35 18.5407V41.4593C35 46.1905 38.8095 50 43.5407 50H66.4593C71.1905 50 75 46.1905 75 41.4593V18.5407C75 13.8095 71.1905 10 66.4593 10Z" fill="#E0E0E0"/><path d="M75 33.2873C70.4532 27.8187 63.2028 24.3164 55.0922 24.3164C46.8587 24.3164 39.5469 27.8802 35 33.4101V41.4593C35 46.1905 38.8095 50 43.5407 50H66.4593C71.1905 50 75 46.1905 75 41.4593V33.2873Z" fill="url(#svg_305f7e1f1c__paint0_radial_870_50111)"/><mask id="svg_305f7e1f1c__a" style="mask-type:alpha" maskUnits="userSpaceOnUse" x="35" y="10" width="40" height="40"><path d="M43.5407 10H66.4593C71.1905 10 75 13.8095 75 18.5407V41.4593C75 46.1905 71.1905 50 66.4593 50H43.5407C38.8095 50 35 46.1905 35 41.4593V18.5407C35 13.8095 38.8095 10 43.5407 10Z" fill="#fff"/></mask><g mask="url(#svg_305f7e1f1c__a)"><path d="M59.3936 10H66.8283V18.9708L63.0802 16.7588L59.3936 18.9708V10Z" fill="#EE5528"/></g><mask id="svg_305f7e1f1c__b" style="mask-type:alpha" maskUnits="userSpaceOnUse" x="35" y="10" width="40" height="40"><path d="M43.5407 10H66.4593C71.1905 10 75 13.8095 75 18.5407V41.4593C75 46.1905 71.1905 50 66.4593 50H43.5407C38.8095 50 35 46.1905 35 41.4593V18.5407C35 13.8095 38.8095 10 43.5407 10Z" fill="#fff"/></mask><g mask="url(#svg_305f7e1f1c__b)"><path d="M64.5548 41.2749C66.2138 41.2749 67.0126 41.8894 67.0126 42.6267C67.0126 43.364 66.2138 43.9785 64.5548 43.9785C62.8958 43.9785 60.9296 42.6267 60.9296 42.6267C60.9296 42.6267 62.8958 41.2749 64.5548 41.2749ZM45.3229 41.0906C46.9204 41.0906 48.7637 42.4424 48.7637 42.4424C48.7637 42.4424 46.9204 43.7941 45.3229 43.7941C43.7253 43.7941 43.0494 43.1797 43.0494 42.4424C42.988 41.6436 43.7253 41.0906 45.3229 41.0906ZM63.5717 34.2089C64.1862 34.8233 64.1247 35.8064 62.9573 36.9739C61.7898 38.1413 59.3935 38.3871 59.3935 38.3871C59.3935 38.3871 59.6393 35.9293 60.8067 34.8233C61.9742 33.6559 63.0187 33.5944 63.5717 34.2089ZM46.2445 34.2089C46.7975 33.6559 47.7192 33.7173 48.8252 34.8848C49.8697 36.0522 50.1155 38.4485 50.1155 38.4485C50.1155 38.4485 47.8421 38.1413 46.7975 36.9739C45.6915 35.745 45.6915 34.7619 46.2445 34.2089ZM54.8467 30.5837C55.584 30.5837 56.1984 31.321 56.1984 32.8571C56.1984 34.3932 54.8467 36.298 54.8467 36.298C54.8467 36.298 53.4949 34.4546 53.4949 32.8571C53.4949 31.2596 54.1094 30.5837 54.8467 30.5837Z" fill="#fff"/></g><path d="M117.027 27.8183C116.782 27.6954 116.474 27.6954 116.29 27.6954 116.167 27.6954 116.106 27.7569 116.044 27.8797V28.4327H113.586C113.586 27.8183 113.648 27.5725 113.648 27.081 113.648 26.8352 113.525 26.5894 113.279 26.4665L112.358 26.0364C112.173 25.975 111.927 26.0979 111.927 26.2822 111.927 27.2039 111.927 27.3882 111.866 28.4327H108.732C108.609 28.4327 108.548 28.5556 108.609 28.6171L108.794 28.9857C108.855 29.1701 109.04 29.293 109.285 29.293H111.927C111.805 33.041 111.129 36.4819 108.548 39.5541 108.487 39.677 108.487 39.7999 108.548 39.8613 108.609 39.9842 108.794 39.9842 108.855 39.8613 112.542 36.912 113.341 33.1639 113.586 29.293H116.044C116.167 33.2868 115.737 35.8675 115.491 37.2192 115.368 37.8951 114.877 38.3867 114.139 38.3867 113.771 38.3867 113.402 38.3867 113.095 38.3867 112.911 38.3867 112.849 38.571 112.972 38.6939L113.955 39.6155C114.078 39.7384 114.201 39.7999 114.385 39.7384 114.877 39.7384 115.86 39.6155 116.351 39.124 117.273 38.2023 117.58 35.5602 117.703 29.4773 117.703 29.4158 117.703 29.293 117.703 29.293V28.3713C117.642 28.3099 117.519 28.0641 117.027 27.8183zM126.612 27.0809C126.367 26.958 126.059 26.8965 125.814 26.8965 125.691 26.8965 125.568 26.958 125.568 27.0809V27.5724H122.311C122.188 27.5724 122.127 27.6953 122.188 27.8182L122.311 28.1254C122.434 28.3097 122.618 28.4326 122.803 28.4326H125.568V38.2636H121.574V27.5724C121.574 27.5724 121.267 27.1423 120.837 26.8965 120.591 26.7736 120.284 26.7122 120.038 26.7122 119.915 26.7122 119.854 26.8351 119.854 26.8965V39.6769C119.854 39.7997 119.976 39.8612 120.038 39.8612H120.099C120.837 39.8612 121.512 39.3696 121.512 39.1239V38.9395H125.506V39.554C125.506 39.6769 125.629 39.7383 125.691 39.7383H125.752C126.305 39.7383 127.165 39.2468 127.165 39.1239L127.104 27.3881C127.288 27.5724 127.042 27.2652 126.612 27.0809zM127.042 22.1654L125.813 22.5955 122.495 22.7184V20.998C122.495 20.998 122.311 20.6907 121.82 20.445 121.512 20.2606 121.267 20.1992 121.082 20.1378 120.959 20.0763 120.836 20.1992 120.836 20.3221V22.7184H116.228V20.998C116.228 20.998 115.982 20.6293 115.552 20.3835 115.306 20.2606 114.999 20.1378 114.815 20.0763 114.692 20.0149 114.569 20.1378 114.569 20.2606V22.657H108.732C108.609 22.657 108.548 22.7798 108.609 22.8413L108.793 23.21C108.855 23.3943 109.039 23.5172 109.285 23.5172H114.446V25.6063C114.446 25.7292 114.569 25.852 114.753 25.7906 114.938 25.7292 115.245 25.6063 115.429 25.4834 115.798 25.299 116.167 24.9304 116.167 24.9304V23.5786H120.775V25.5448C120.775 25.6677 120.898 25.7906 121.021 25.7292 121.205 25.6677 121.451 25.6063 121.758 25.4219 122.25 25.1762 122.495 24.8075 122.495 24.8075V23.5172H128.455C128.64 23.5172 128.701 23.3328 128.578 23.21L127.349 22.1654C127.288 22.1654 127.165 22.1654 127.042 22.1654zM90.914 26.2821C92.3272 26.8351 93.4332 24.0701 89.5008 22.7798 89.4394 22.7798 89.3779 22.7798 89.3779 22.7798 89.3165 22.8412 89.255 22.9641 89.3165 23.0256 89.8695 23.7629 90.361 24.746 90.4839 25.7291 90.4839 25.9749 90.6682 26.1592 90.914 26.2821z" fill="#000"/><path d="M105.292 30.9521C102.281 30.2763 99.2704 29.2317 97.4271 27.327H104.247C104.432 27.327 104.493 27.1426 104.37 27.0197L103.326 26.0981C103.264 26.0366 103.141 26.0366 103.018 26.0366L101.79 26.4053L97.7343 26.5282C98.4102 26.0366 99.7619 24.7463 100.438 24.0704C100.684 23.8247 100.622 23.5174 100.376 23.3331L99.4547 22.7187C99.2704 22.5958 99.0861 22.6572 99.0246 22.8415C98.5331 24.0704 97.9801 25.2993 97.4885 26.1595C97.4271 26.2824 97.4271 26.4667 97.55 26.5282H95.8295V22.2886C97.4885 22.1657 100.438 21.8584 101.482 21.7356C101.667 21.7356 101.728 21.5512 101.667 21.3669C101.482 21.1211 101.175 20.691 100.991 20.3838C100.806 20.138 100.499 20.0151 100.253 20.0766C96.997 20.9368 91.467 21.797 86.9202 22.1042C86.7973 22.1042 86.7358 22.1657 86.7358 22.2886C86.7358 22.4114 86.7973 22.5343 86.9202 22.5343C89.3165 22.5958 91.7742 22.5343 94.1705 22.4114V26.4667H85.5684C85.4455 26.4667 85.3841 26.5896 85.4455 26.7125L85.5684 27.0197C85.6913 27.2041 85.8756 27.327 86.0599 27.327H91.1598C89.5008 29.4775 87.8418 30.8907 84.9539 32.3039C84.8925 32.3654 84.8311 32.4268 84.8311 32.5497C84.8925 32.6726 84.9539 32.734 85.0768 32.6726C88.8864 31.9967 92.2043 28.9245 93.4332 27.327H94.1705V30.522C94.1705 30.6449 94.2934 30.7064 94.3549 30.7064H94.4163C95.2765 30.7064 95.8295 30.2763 95.8295 30.2148V27.327H96.6283C99.2704 31.075 102.773 32.4268 103.633 32.6726C103.879 32.734 104.124 32.734 104.309 32.5497L105.415 31.3823C105.538 31.1979 105.476 31.0136 105.292 30.9521Z" fill="#000"/><path d="M101.483 31.6898C101.483 31.6898 101.237 31.444 100.745 31.2597C100.438 31.1368 100.192 31.1368 100.008 31.1368C99.8851 31.1368 99.7622 31.1983 99.7622 31.3211V31.6898H91.3444C91.1601 31.6898 91.0986 31.8741 91.1601 31.997L91.283 32.2428C91.3444 32.4271 91.5287 32.55 91.7745 32.55H94.2937V34.8849H90.5456V32.0585C90.4842 31.997 90.3613 31.9356 90.177 31.8127C90.1155 31.7512 89.5011 31.5055 89.071 31.5055C88.9481 31.5055 88.8252 31.5669 88.8252 31.6898V39.8004C88.8252 39.9233 88.9481 39.9847 89.0095 39.9847H89.071C89.7469 39.9847 90.4842 39.4932 90.4842 39.4317V39.2474H99.7622V39.739C99.7622 39.8619 99.8851 39.9233 99.9465 39.9233H100.008C100.561 39.9233 101.421 39.4317 101.421 39.3089V32.4886V32.3042V31.6898H101.483ZM94.2323 38.3872H90.4842V35.6222H94.2323V38.3872ZM99.7622 38.3872H95.8912V35.6222H99.7622V38.3872ZM99.7622 34.8234H95.8912V32.4886H99.7622V34.8234Z" fill="#000"/><path d="M90.4835 34.8234V35.6836H90.2992L89.8076 34.8234H90.4835zM162.004 33.594C161.267 34.4542 159.116 36.912 158.072 38.1408 157.765 38.5095 157.212 38.4481 156.966 38.0179L156.351 37.0348C156.29 36.912 156.29 36.7276 156.413 36.6662L157.089 36.1746V27.2653H154.877C154.692 27.2653 154.508 27.1424 154.447 26.958L154.262 26.6508C154.201 26.5279 154.262 26.405 154.447 26.405H157.089V25.9749C157.089 25.852 157.212 25.7292 157.335 25.7906 157.519 25.7906 157.765 25.852 158.072 25.9135 158.502 26.0364 158.748 26.2207 158.748 26.2207V35.3759C159.669 34.7614 160.714 34.0241 161.82 33.2253 161.881 33.1639 162.004 33.1639 162.066 33.2253 162.066 33.4096 162.066 33.5325 162.004 33.594zM155.798 20.0766C159.915 21.5513 159.546 24.2548 158.317 24.2548 157.949 24.2548 157.641 24.009 157.58 23.6404 157.211 22.5344 156.351 21.1826 155.675 20.2609 155.614 20.1995 155.614 20.0766 155.737 20.0152 155.675 20.0766 155.737 20.0766 155.798 20.0766zM162.618 20.0766C166.735 21.5513 166.366 24.2548 165.138 24.2548 164.769 24.2548 164.462 24.009 164.4 23.6404 164.032 22.5344 163.171 21.1826 162.495 20.2609 162.434 20.1995 162.434 20.0766 162.557 20.0152 162.557 20.0766 162.618 20.0766 162.618 20.0766zM163.848 32.1807C163.663 34.9457 162.926 37.342 158.625 39.6155 158.502 39.6769 158.502 39.7998 158.502 39.8612 158.563 39.9841 158.686 40.0456 158.809 39.9841 164.216 37.895 165.261 35.3144 165.629 32.2422 165.629 32.0579 165.507 31.935 165.384 31.935H164.216C164.032 31.935 163.909 31.9964 163.848 32.1807zM172.327 35.8675C172.266 35.7446 172.081 35.8061 172.081 35.9289 172.081 36.359 172.081 36.912 172.02 37.0964 171.958 37.7108 171.835 37.7723 171.344 37.7723H169.992C169.501 37.7723 169.378 37.6494 169.378 37.0964V32.1809C169.378 31.9965 169.193 31.8122 169.009 31.8122H168.087C167.903 31.8122 167.719 31.9965 167.719 32.1809V37.6494C167.719 38.9397 168.149 39.2469 169.316 39.3698 169.808 39.4312 170.975 39.4312 171.467 39.3698 172.696 39.3084 173.187 39.0626 173.31 37.8337 173.372 37.5265 173.372 37.3421 173.372 37.2193 173.372 37.0349 173.31 36.912 173.187 36.7892 173.064 36.7277 172.941 36.6048 172.696 36.4205 172.634 36.359 172.45 36.1133 172.327 35.8675z" fill="#000"/><path d="M170.36 31.1366V31.5053C170.36 31.6282 170.483 31.6896 170.545 31.6896H170.606C171.159 31.6896 171.958 31.321 172.019 31.1981V24.5621C172.019 24.5621 171.835 24.2549 171.343 24.132 171.036 24.0706 170.79 24.0091 170.606 24.0091 170.483 24.0091 170.36 24.0706 170.36 24.1935V24.6236H168.087C168.886 23.7633 170.237 22.1044 170.79 21.367 170.913 21.1827 170.852 20.8755 170.668 20.814L169.684 20.261C169.5 20.1382 169.193 20.261 169.132 20.4454 168.701 21.7357 168.026 23.3947 167.411 24.5621H162.987C162.987 24.5621 162.68 24.2549 162.311 24.0706 162.065 23.9477 161.82 23.9477 161.574 23.8862 161.451 23.8862 161.328 23.9477 161.328 24.0706V31.5053C161.328 31.6282 161.451 31.6896 161.512 31.6896H161.574C162.25 31.6896 162.987 31.321 162.987 31.1366V31.0137H170.36V31.1366zM162.987 25.4838H170.36V30.3378H162.987V25.5452 25.4838zM137.55 26.405C136.26 30.7675 134.232 34.3927 132.573 35.9902 132.45 36.0517 132.327 36.1131 132.204 35.9902 132.081 35.9288 132.081 35.7444 132.143 35.683 133.925 32.4879 134.969 29.3543 135.707 25.5447 135.768 25.3604 135.891 25.299 136.075 25.3604L137.181 25.7905C137.427 25.852 137.611 26.1592 137.55 26.405zM151.252 34.1466C150.146 30.3371 148.18 27.142 146.521 25.6059 146.398 25.5445 146.275 25.483 146.153 25.5445 146.03 25.6059 146.03 25.7288 146.091 25.8517 147.75 28.6781 148.61 31.3817 149.225 34.5768 149.286 35.0069 149.839 35.3141 150.331 35.1912H150.515C151.068 35.0683 151.375 34.6382 151.252 34.1466zM139.946 38.3251C140.929 38.3251 141.052 37.8335 141.052 36.9119V20.5064C141.052 20.3835 141.175 20.322 141.236 20.322 141.482 20.322 141.789 20.4449 142.096 20.5678 142.465 20.7521 142.649 20.9365 142.711 21.0593 142.772 21.1208 142.772 21.1822 142.772 21.3051V37.4649C142.772 39.4311 141.851 39.9226 140.192 39.9841 140.192 39.9841 139.946 39.9841 139.762 39.9841 139.577 39.9841 139.393 39.8612 139.332 39.6769 139.27 39.554 139.147 39.3696 138.963 39.1853 138.717 38.8781 138.41 38.6938 138.287 38.5709 138.226 38.5094 138.164 38.448 138.164 38.3865 138.164 38.2637 138.287 38.2636 138.348 38.2636 138.779 38.3251 139.454 38.3251 139.946 38.3251z" fill="#000"/><defs><radialGradient id="svg_305f7e1f1c__paint0_radial_870_50111" cx="0" cy="0" r="1" gradientUnits="userSpaceOnUse" gradientTransform="translate(55.17 43.048) scale(20.388)"><stop stop-color="#CC0500"/><stop offset="1" stop-color="#FF751F"/></radialGradient></defs></svg>