<svg width="83.2" height="24" viewBox="0 0 208 61" fill="none" xmlns="http://www.w3.org/2000/svg"><g filter="url(#svg_9f8785f1c3__filter0_d_870_51243)"><path d="M64.6404 10H38.104C34.1856 10.0122 31.0122 13.1856 31 17.104V43.6404C31.0122 47.5588 34.1856 50.7322 38.104 50.7444H64.6404C68.5588 50.7322 71.7322 47.5588 71.7444 43.6404V17.104C71.7322 13.1856 68.5588 10.0122 64.6404 10Z" fill="#fff"/></g><path d="M50.3115 16.7592C46.7083 17.0303 43.3594 18.7387 41.0021 21.5082C38.6449 24.2777 37.4726 27.8813 37.7434 31.5254C38.2935 38.7006 44.1954 44.2481 51.3109 44.2782C51.6536 44.2782 52.0003 44.2782 52.343 44.241C59.6525 43.6972 65.2269 37.4023 64.959 29.9944C64.6911 22.5864 58.6769 16.7202 51.3476 16.7179V16.7179V15.0676V15.0676V16.7179C51.0009 16.7179 50.6583 16.7303 50.3115 16.7592Z" fill="#93F6E5"/><path d="M50.348 17.2447L50.348 17.2447C46.8754 17.5059 43.6465 19.1525 41.3729 21.8237C39.0992 24.4951 37.9677 27.9719 38.2289 31.4887C38.7602 38.4151 44.4554 43.7619 51.3121 43.7913C51.6588 43.7913 51.9787 43.7908 52.2905 43.757L52.2987 43.7561L52.3069 43.7555C59.3506 43.2315 64.7311 37.1633 64.4724 30.012C64.2138 22.8609 58.4099 17.2071 51.3476 17.2048L50.348 17.2447ZM50.348 17.2447L50.3519 17.2444M50.348 17.2447L50.3519 17.2444M50.3519 17.2444C50.6835 17.2167 51.0125 17.2048 51.3475 17.2048L50.3519 17.2444Z" fill="url(#svg_9f8785f1c3__paint0_linear_870_51243)" stroke="url(#svg_9f8785f1c3__paint1_linear_870_51243)" stroke-width="2"/><circle cx="64.859" cy="16.963" r="1.672" fill="#FF89AB"/><path fill-rule="evenodd" clip-rule="evenodd" d="M85.8134 31.7634H82.1393L81.5362 30.979L83.4915 23.4865H81.5029V22.2359H83.8179L84.4851 19.6792L85.695 19.9974L85.1106 22.2359H90.098V23.4865H84.7841L82.9496 30.5128H85.8134V28.9107H87.064V30.5128H90.098V31.7634H87.064V36.8768H90.2571V38.1274H87.064V43.0743H85.8134V38.1274H81.5029V36.8768H85.8134V31.7634ZM100.521 41.6535H97.2464V31.6043H100.521V30.3537H94.1347L100.551 22.5985L100.066 21.5736H92.8841V22.8242H98.7375L92.3217 30.5794L92.8027 31.6043H95.9958V41.6535H92.4845V42.9041H100.521V41.6535ZM176.767 43.0521C174.525 42.6266 173.241 40.7063 172.952 37.343C172.697 34.3571 172.612 29.1105 172.704 21.7364H168.349V34.9972C168.381 37.7587 167.582 40.466 166.055 42.7672L165.012 42.0716C166.405 39.9709 167.132 37.499 167.099 34.9787V21.1222L167.724 20.4969H173.337L173.962 21.1222C173.859 28.7849 173.94 34.2054 174.199 37.2357C174.44 40.0107 175.353 41.5129 177 41.8237L176.767 43.0521ZM165.534 22.8723H162.019V19.8383H160.768V22.8723H156.62V24.1229H160.768V43.0743H162.019V24.1229H165.534V22.8723ZM156.091 40.1772L157.131 40.8765C158.478 38.8822 159.159 36.4143 159.147 33.5172V25.5622H157.893V33.5172C157.893 36.159 157.286 38.3975 156.091 40.1772ZM164.161 32.5367C163.617 31.3157 163.295 29.0365 163.184 25.5585L164.435 25.5178C164.542 28.7849 164.834 30.9716 165.304 32.0261L164.161 32.5367ZM141.184 22.7132H137.673V19.8383H136.422V22.7132H132.271V23.9638H136.422V43.0743H137.673V23.9638H141.184V22.7132ZM131.742 40.1957L132.803 40.8617C134.132 38.7342 134.809 36.1849 134.809 33.273V25.4105H133.555V33.273C133.555 35.9444 132.944 38.2754 131.742 40.1957ZM143.57 43.0632H150.334L150.959 42.4379V21.2702L150.334 20.6449H143.57L142.945 21.2702V42.4379L143.57 43.0632ZM149.694 41.8126H144.181V35.5818H147.707V34.3312H144.181V29.2178H147.707V27.9672H144.181V21.8955H149.694V41.8126ZM138.827 25.3994C138.934 28.9514 139.253 31.2861 139.793 32.5293L140.94 32.0224C140.47 30.9494 140.181 28.6924 140.081 25.3624L138.827 25.3994ZM111.355 19.694H112.605V21.1222H115.643L116.091 22.1841L112.205 26.2171H115.802V27.4677H108.853V35.6077C108.853 38.7231 108.147 41.2576 106.755 43.1298L105.749 42.3898C106.977 40.7396 107.599 38.4567 107.599 35.6077V26.8424L108.224 26.2171H110.465L114.17 22.3765H108.002V21.1222H111.355V19.694ZM122.373 30.3426H121.123V38.8265L116.979 42.4453L117.804 43.3851L121.766 39.9256L125.733 43.3851L126.558 42.4453L122.373 38.7938V30.3426ZM114.052 39.5141L110.551 41.5828L111.187 42.6594L114.688 40.5907L114.052 39.5141ZM110.505 36.7355L114.002 34.6617L114.639 35.7372L111.142 37.811L110.505 36.7355ZM114.047 30.1197L110.547 32.1884L111.183 33.2651L114.684 31.1964L114.047 30.1197ZM125.814 38.3013H124.564V27.4677H118.814V38.3013H117.563V26.8424L118.188 26.2171H119.554L123.742 22.3765H118.029V21.1222H125.348L125.773 22.21L121.405 26.2171H125.189L125.814 26.8424V38.3013Z" fill="#000"/><defs><linearGradient id="svg_9f8785f1c3__paint0_linear_870_51243" x1="52.026" y1="48.938" x2="69.145" y2="30.963" gradientUnits="userSpaceOnUse"><stop stop-color="#FF89AC" stop-opacity=".01"/><stop offset="1" stop-color="#FF89AC"/></linearGradient><linearGradient id="svg_9f8785f1c3__paint1_linear_870_51243" x1="52.77" y1="50.351" x2="72.008" y2="29.47" gradientUnits="userSpaceOnUse"><stop stop-color="#96EDDD"/><stop offset=".35" stop-color="#BFC1C8"/><stop offset=".78" stop-color="#ED90B0"/><stop offset="1" stop-color="#FF7DA7"/></linearGradient><filter id="svg_9f8785f1c3__filter0_d_870_51243" x="21" y="0" width="60.744" height="60.744" filterUnits="userSpaceOnUse" color-interpolation-filters="sRGB"><feFlood flood-opacity="0" result="BackgroundImageFix"/><feColorMatrix in="SourceAlpha" values="0 0 0 0 0 0 0 0 0 0 0 0 0 0 0 0 0 0 127 0" result="hardAlpha"/><feOffset/><feGaussianBlur stdDeviation="5"/><feColorMatrix values="0 0 0 0 0 0 0 0 0 0 0 0 0 0 0 0 0 0 0.128141 0"/><feBlend in2="BackgroundImageFix" result="effect1_dropShadow_870_51243"/><feBlend in="SourceGraphic" in2="effect1_dropShadow_870_51243" result="shape"/></filter></defs></svg>