<svg width="83.2" height="24" viewBox="0 0 208 60" fill="none" xmlns="http://www.w3.org/2000/svg"><mask id="svg_9bc6e67dd9__a" style="mask-type:alpha" maskUnits="userSpaceOnUse" x="63" y="7" width="27" height="48"><path fill-rule="evenodd" clip-rule="evenodd" d="M88.0894 8.05471L77.438 19.5662C77.3514 19.6596 77.3155 19.7899 77.3412 19.9148V19.9148C77.4978 20.6762 77.2805 21.4999 76.6897 22.0906V22.0906C75.7445 23.0358 74.2057 23.0227 73.2746 22.0551V22.0551L63.9792 31.35C63.6933 31.6359 63.547 32.0316 63.5771 32.4342V32.4342L64.4927 44.6716L74.44 54.619C74.8883 55.0668 75.6521 54.8704 75.8281 54.2621V54.2621L89.0652 8.59295C89.1746 8.18599 88.8488 7.86752 88.5041 7.86752V7.86752C88.3587 7.86752 88.2104 7.92392 88.0894 8.05471V8.05471Z" fill="#fff"/></mask><g mask="url(#svg_9bc6e67dd9__a)"><path fill-rule="evenodd" clip-rule="evenodd" d="M89.8151 6.01453L77.4538 19.3746C77.3667 19.4679 77.3283 19.5973 77.3546 19.7222C77.515 20.4934 77.2957 21.3277 76.6972 21.9262C75.7413 22.8816 74.1859 22.8685 73.2446 21.8902L63.3936 31.7413L64.3674 44.7528L75.4302 55.815L89.8151 6.01453Z" fill="#38F"/></g><mask id="svg_9bc6e67dd9__b" style="mask-type:alpha" maskUnits="userSpaceOnUse" x="63" y="7" width="27" height="48"><path fill-rule="evenodd" clip-rule="evenodd" d="M88.0894 8.05471L77.438 19.5662C77.3514 19.6596 77.3155 19.7899 77.3412 19.9148V19.9148C77.4978 20.6762 77.2805 21.4999 76.6897 22.0906V22.0906C75.7445 23.0358 74.2057 23.0227 73.2746 22.0551V22.0551L63.9792 31.35C63.6933 31.6359 63.547 32.0316 63.5771 32.4342V32.4342L64.4927 44.6716L74.44 54.619C74.8883 55.0668 75.6521 54.8704 75.8281 54.2621V54.2621L89.0652 8.59295C89.1746 8.18599 88.8488 7.86752 88.5041 7.86752V7.86752C88.3587 7.86752 88.2104 7.92392 88.0894 8.05471V8.05471Z" fill="#fff"/></mask><g mask="url(#svg_9bc6e67dd9__b)"><path fill-rule="evenodd" clip-rule="evenodd" d="M89.6661 6.35022L77.4379 19.5664C77.3509 19.6602 77.3149 19.7895 77.3407 19.9145C77.4977 20.6759 77.2804 21.4995 76.6896 22.0903C75.744 23.0355 74.2056 23.0228 73.2745 22.0548L63.5921 31.7367C63.5523 31.7765 63.5314 31.832 63.5357 31.8884L64.4921 44.6713L89.1502 7.47045L89.6661 6.35022Z" fill="#005DE0"/></g><mask id="svg_9bc6e67dd9__c" style="mask-type:alpha" maskUnits="userSpaceOnUse" x="40" y="6" width="48" height="26"><path fill-rule="evenodd" clip-rule="evenodd" d="M86.7361 6.26352L41.067 19.5011C40.4587 19.6771 40.2623 20.4409 40.7101 20.8887V20.8887L50.6574 30.8365L62.8948 31.7521C63.2979 31.7822 63.6932 31.6359 63.9791 31.35V31.35L73.2739 22.0546C72.3064 21.1235 72.2933 19.5847 73.2385 18.6395V18.6395C73.8292 18.0487 74.6528 17.8314 75.4142 17.9885V17.9885C75.5392 18.0137 75.6695 17.9778 75.7624 17.8912V17.8912L87.2743 7.23983C87.673 6.8708 87.3828 6.24213 86.8941 6.24213V6.24213C86.8436 6.24213 86.7906 6.24893 86.7361 6.26352V6.26352Z" fill="#fff"/></mask><g mask="url(#svg_9bc6e67dd9__c)"><path fill-rule="evenodd" clip-rule="evenodd" d="M89.3141 5.51382L75.9541 17.8752C75.8607 17.9618 75.7314 18.0007 75.6064 17.9744C74.8353 17.8139 74.001 18.0332 73.4025 18.6318C72.4471 19.5876 72.4602 21.143 73.4384 22.0843L63.5874 31.9354L50.5759 30.9615L39.5137 19.8988L89.3141 5.51382Z" fill="#46EBD5"/></g><mask id="svg_9bc6e67dd9__d" style="mask-type:alpha" maskUnits="userSpaceOnUse" x="40" y="6" width="48" height="26"><path fill-rule="evenodd" clip-rule="evenodd" d="M86.7361 6.26352L41.067 19.5011C40.4587 19.6771 40.2623 20.4409 40.7101 20.8887V20.8887L50.6574 30.8365L62.8948 31.7521C63.2979 31.7822 63.6932 31.6359 63.9791 31.35V31.35L73.2739 22.0546C72.3064 21.1235 72.2933 19.5847 73.2385 18.6395V18.6395C73.8292 18.0487 74.6528 17.8314 75.4142 17.9885V17.9885C75.5392 18.0137 75.6695 17.9778 75.7624 17.8912V17.8912L87.2743 7.23983C87.673 6.8708 87.3828 6.24213 86.8941 6.24213V6.24213C86.8436 6.24213 86.7906 6.24893 86.7361 6.26352V6.26352Z" fill="#fff"/></mask><g mask="url(#svg_9bc6e67dd9__d)"><path fill-rule="evenodd" clip-rule="evenodd" d="M88.9793 5.66272L75.7631 17.8909C75.6693 17.9779 75.54 18.0139 75.415 17.9881C74.6536 17.8311 73.83 18.0484 73.2392 18.6392C72.294 19.5848 72.3067 21.1232 73.2747 22.0543L63.5928 31.7367C63.553 31.7765 63.4975 31.7974 63.4411 31.7931L50.6582 30.8367L87.8591 6.17859L88.9793 5.66272Z" fill="#00D0B6"/></g><path fill-rule="evenodd" clip-rule="evenodd" d="M155.796 23.6423L150.28 19.3168C150.274 19.3119 150.272 19.3033 150.277 19.2968L151.442 17.7155L156.958 22.0404C156.964 22.0452 156.966 22.0544 156.961 22.0609L155.796 23.6423Z" fill="#18263C"/><mask id="svg_9bc6e67dd9__e" style="mask-type:alpha" maskUnits="userSpaceOnUse" x="131" y="17" width="25" height="28"><path fill-rule="evenodd" clip-rule="evenodd" d="M131.246 17H155.986V44.0369H131.246V17Z" fill="#fff"/></mask><g mask="url(#svg_9bc6e67dd9__e)"><path fill-rule="evenodd" clip-rule="evenodd" d="M150.256 30.0098H143.242V24.1489H150.222V24.1538H150.256V30.0098ZM155.986 30.0098H152.605V22.0316H143.242V17.2898C143.242 17.2892 143.242 17.2887 143.242 17.2887V16.9999H141V17.2854C141 17.2871 140.999 17.2881 140.999 17.2898V22.0316H132.992V24.1489H140.999V30.0098H131.247L131.246 32.1514H131.247H140.999V43.7476C140.999 43.7497 141 43.7519 141 43.7541V44.0369H141.274H143.242V43.3425V32.1514H153.656C153.656 33.5818 153.695 34.969 153.621 36.4395C153.568 37.9349 152.273 38.6634 150.527 38.639L147.294 38.6488V40.7617L151.274 40.7569C154.066 40.7374 155.79 39.4254 155.901 36.8111C156.07 34.6981 155.914 32.431 155.986 30.0098V30.0098Z" fill="#18263C"/></g><mask id="svg_9bc6e67dd9__f" style="mask-type:alpha" maskUnits="userSpaceOnUse" x="104" y="19" width="27" height="26"><path fill-rule="evenodd" clip-rule="evenodd" d="M104 19.7414H130.028V44.0408H104V19.7414Z" fill="#fff"/></mask><g mask="url(#svg_9bc6e67dd9__f)"><path fill-rule="evenodd" clip-rule="evenodd" d="M104 19.7414H119.155C119.155 20.1989 119.146 20.9701 119.128 22.0572C119.115 23.5953 119.12 25.3956 119.124 26.3805L125.495 20.9842L126.867 22.6034L120.208 28.243L127.817 32.7123L126.742 34.5425L119.233 30.1316C119.387 33.4911 119.947 36.0854 120.921 37.902C120.915 37.9015 121.691 39.552 123.123 40.7645C123.143 40.7813 123.163 40.797 123.183 40.8132C123.259 40.876 123.416 40.983 123.416 40.983C123.951 41.3486 124.57 41.552 125.278 41.5823C126.276 41.6006 126.922 41.0387 127.218 39.8955C127.46 38.9642 127.652 38.0691 127.796 37.2081H129.686V37.2081H130.028L129.923 37.7484C129.651 39.2881 129.35 40.5396 129.019 41.4968C128.464 43.2117 127.208 44.0592 125.25 44.0408C124.507 44.0408 123.833 43.9002 123.217 43.6444L123.222 43.6509C123.203 43.6428 123.184 43.633 123.165 43.6244C123.069 43.5827 122.972 43.5395 122.879 43.4919C119.305 41.7023 117.916 36.6868 117.916 36.6868L117.934 36.7095C117.313 34.7253 116.958 32.251 116.883 29.2608C116.846 28.2511 116.837 26.1928 116.856 23.0863V21.9712H104V19.7414" fill="#18263C"/></g></svg>