<svg width="83.2" height="24" viewBox="0 0 208 60" fill="none" xmlns="http://www.w3.org/2000/svg"><g clip-path="url(#svg_030222237e__clip0_870_51077)"><path d="M87.4995 17.2099C89.2086 17.2099 90.6044 15.8141 90.6044 14.1049C90.6044 12.3958 89.2086 11 87.4995 11C85.7903 11 84.3945 12.3958 84.3945 14.1049C84.3945 15.8141 85.7903 17.2099 87.4995 17.2099Z" fill="#242625"/><path d="M63.4003 17.267L56.1934 24.5593V24.246L63.0869 17.267H63.4003Z" fill="#00F6EE"/><path d="M63.6851 17.267L56.1934 24.8442V24.5593L63.4003 17.267H63.6851Z" fill="#01F6ED"/><path d="M63.9985 17.267L56.1934 25.1575V24.8442L63.6851 17.267H63.9985Z" fill="#02F6EC"/><path d="M64.2833 17.267L56.1934 25.4424V25.1575L63.9985 17.267H64.2833Z" fill="#03F6EC"/><path d="M64.5682 17.267L56.1934 25.7557V25.4424L64.2833 17.267H64.5682Z" fill="#04F6EB"/><path d="M64.8815 17.267L56.1934 26.0406V25.7557L64.5682 17.267H64.8815Z" fill="#05F6EA"/><path d="M65.1664 17.267L56.1934 26.3539V26.0406L64.8815 17.267H65.1664Z" fill="#06F6E9"/><path d="M65.4797 17.267L56.1934 26.6388V26.3539L65.1664 17.267H65.4797Z" fill="#07F6E8"/><path d="M65.7646 17.267L56.1934 26.9521V26.6388L65.4797 17.267H65.7646Z" fill="#08F6E8"/><path d="M66.0779 17.267L56.1934 27.237V26.9521L65.7646 17.267H66.0779Z" fill="#09F7E7"/><path d="M66.3628 17.267L56.1934 27.5503V27.237L66.0779 17.267H66.3628Z" fill="#0AF7E6"/><path d="M66.6476 17.267L56.1934 27.8352V27.5503L66.3628 17.267H66.6476Z" fill="#0BF7E5"/><path d="M66.961 17.267L56.1934 28.1485V27.8352L66.6476 17.267H66.961Z" fill="#0CF7E4"/><path d="M67.2458 17.267L56.1934 28.4334V28.1485L66.961 17.267H67.2458Z" fill="#0DF7E4"/><path d="M67.5592 17.267L56.1934 28.7467V28.4334L67.2458 17.267H67.5592Z" fill="#0EF7E3"/><path d="M67.844 17.267L56.1934 29.0601V28.7467L67.5592 17.267H67.844Z" fill="#0FF7E2"/><path d="M68.1574 17.267L56.1934 29.3449V29.0601L67.844 17.267H68.1574Z" fill="#10F7E1"/><path d="M68.4422 17.267L56.1934 29.6583V29.3449L68.1574 17.267H68.4422Z" fill="#11F7E0"/><path d="M68.7271 17.267L56.1934 29.9431V29.6583L68.4422 17.267H68.7271Z" fill="#12F7E0"/><path d="M69.0404 17.267L56.1934 30.2565V29.9431L68.7271 17.267H69.0404Z" fill="#13F7DF"/><path d="M69.3253 17.267L56.1934 30.5413V30.2565L69.0404 17.267H69.3253Z" fill="#14F7DE"/><path d="M69.6386 17.267L56.1934 30.8547V30.5413L69.3253 17.267H69.6386Z" fill="#15F7DD"/><path d="M69.9235 17.267L56.1934 31.1395V30.8547L69.6386 17.267H69.9235Z" fill="#16F7DC"/><path d="M70.2368 17.267L56.1934 31.4529V31.1395L69.9235 17.267H70.2368Z" fill="#17F7DC"/><path d="M70.5217 17.267L56.1934 31.7377V31.4529L70.2368 17.267H70.5217Z" fill="#18F7DB"/><path d="M70.8066 17.267L56.1934 32.0511V31.7377L70.5217 17.267H70.8066Z" fill="#19F7DA"/><path d="M71.1199 17.267L56.1934 32.3359V32.0511L70.8066 17.267H71.1199Z" fill="#1AF8D9"/><path d="M71.4048 17.267L56.1934 32.6493V32.3359L71.1199 17.267H71.4048Z" fill="#1BF8D8"/><path d="M71.7181 17.267L56.1934 32.9626V32.6493L71.4048 17.267H71.7181Z" fill="#1CF8D8"/><path d="M72.003 17.267L56.1934 33.2475V32.9626L71.7181 17.267H72.003Z" fill="#1DF8D7"/><path d="M72.3163 17.267L56.1934 33.5608V33.2475L72.003 17.267H72.3163Z" fill="#1EF8D6"/><path d="M72.6012 17.267L56.1934 33.8457V33.5608L72.3163 17.267H72.6012Z" fill="#1FF8D5"/><path d="M72.886 17.267L56.1934 34.159V33.8457L72.6012 17.267H72.886Z" fill="#20F8D4"/><path d="M73.1994 17.267L56.1934 34.4439V34.159L72.886 17.267H73.1994Z" fill="#21F8D4"/><path d="M73.4842 17.267L56.1934 34.7572V34.4439L73.1994 17.267H73.4842Z" fill="#22F8D3"/><path d="M73.7976 17.267L56.1934 35.0421V34.7572L73.4842 17.267H73.7976Z" fill="#23F8D2"/><path d="M74.0824 17.267L56.1934 35.3554V35.0421L73.7976 17.267H74.0824Z" fill="#24F8D1"/><path d="M74.3958 17.267L56.1934 35.6403V35.3554L74.0824 17.267H74.3958Z" fill="#25F8D0"/><path d="M74.6806 17.267L56.1934 35.9536V35.6403L74.3958 17.267H74.6806Z" fill="#26F8D0"/><path d="M74.994 17.267L56.1934 36.2385V35.9536L74.6806 17.267H74.994Z" fill="#27F8CF"/><path d="M75.2788 17.267L56.1934 36.5518V36.2385L74.994 17.267H75.2788Z" fill="#28F8CE"/><path d="M75.5637 17.267L56.1934 36.8367V36.5518L75.2788 17.267H75.5637Z" fill="#29F8CD"/><path d="M75.877 17.267L56.1934 37.15V36.8367L75.5637 17.267H75.877Z" fill="#2AF8CC"/><path d="M76.1619 17.267L56.1934 37.4634V37.15L75.877 17.267H76.1619Z" fill="#2BF8CC"/><path d="M76.4752 17.267L56.1934 37.7482V37.4634L76.1619 17.267H76.4752Z" fill="#2CF9CB"/><path d="M76.7601 17.267L56.1934 38.0616V37.7482L76.4752 17.267H76.7601Z" fill="#2DF9CA"/><path d="M77.0734 17.267L56.1934 38.3464V38.0616L76.7601 17.267H77.0734Z" fill="#2EF9C9"/><path d="M77.3583 17.267L56.1934 38.6598V38.3464L77.0734 17.267H77.3583Z" fill="#2FF9C8"/><path d="M77.6431 17.267L56.1934 38.9446V38.6598L77.3583 17.267H77.6431Z" fill="#30F9C8"/><path d="M77.9565 17.267L56.1934 39.258V38.9446L77.6431 17.267H77.9565Z" fill="#31F9C7"/><path d="M78.2413 17.267L56.1934 39.5428V39.258L77.9565 17.267H78.2413Z" fill="#32F9C6"/><path d="M78.5547 17.267L56.1934 39.8562V39.5428L78.2413 17.267H78.5547Z" fill="#33F9C5"/><path d="M78.8395 17.267L56.1934 40.141V39.8562L78.5547 17.267H78.8395Z" fill="#34F9C4"/><path d="M79.1529 17.267L56.1934 40.4544V40.141L78.8395 17.267H79.1529Z" fill="#35F9C4"/><path d="M79.4377 17.267L56.1934 40.7392V40.4544L79.1529 17.267H79.4377Z" fill="#36F9C3"/><path d="M79.7226 17.267L56.1934 41.0526V40.7392L79.4377 17.267H79.7226Z" fill="#37F9C2"/><path d="M80.0359 17.267L56.1934 41.3659V41.0526L79.7226 17.267H80.0359Z" fill="#38F9C1"/><path d="M80.2638 17.267L80.2923 17.2955L56.3073 41.5368L56.1934 41.4229V41.3659L80.0359 17.267H80.2638Z" fill="#39F9C0"/><path d="M80.2849 17.3003L56.2939 41.5299L56.4356 41.6702L80.4266 17.4406L80.2849 17.3003Z" fill="#3AF9C0"/><path d="M80.4666 17.4497L56.4756 41.6793L56.6173 41.8196L80.6083 17.59L80.4666 17.4497Z" fill="#3BF9BF"/><path d="M80.6062 17.5994L56.6152 41.8291L56.7569 41.9694L80.7479 17.7397L80.6062 17.5994Z" fill="#3CF9BE"/><path d="M80.7468 17.7491L56.7559 41.9788L56.8976 42.1191L80.8885 17.8894L80.7468 17.7491Z" fill="#3DFABD"/><path d="M80.8875 17.8988L56.8965 42.1284L57.0382 42.2687L81.0292 18.0391L80.8875 17.8988Z" fill="#3EFABC"/><path d="M81.0681 18.0482L57.0771 42.2778L57.2188 42.4181L81.2098 18.1885L81.0681 18.0482Z" fill="#3FFABC"/><path d="M81.2078 18.1978L57.2168 42.4275L57.3585 42.5678L81.3495 18.3381L81.2078 18.1978Z" fill="#40FABB"/><path d="M81.3484 18.3476L57.3574 42.5773L57.4991 42.7176L81.4901 18.4879L81.3484 18.3476Z" fill="#41FABA"/><path d="M81.489 18.4973L57.498 42.7269L57.6397 42.8672L81.6307 18.6376L81.489 18.4973Z" fill="#42FAB9"/><path d="M81.6492 18.6267L57.6582 42.8563L57.7999 42.9966L81.7909 18.767L81.6492 18.6267Z" fill="#43FAB8"/><path d="M81.8093 18.7964L57.8184 43.026L57.9601 43.1663L81.951 18.9367L81.8093 18.7964Z" fill="#44FAB8"/><path d="M81.95 18.9459L57.959 43.1755L58.1007 43.3158L82.0916 19.0862L81.95 18.9459Z" fill="#45FAB7"/><path d="M82.1101 19.0753L58.1191 43.3049L58.2608 43.4452L82.2518 19.2156L82.1101 19.0753Z" fill="#46FAB6"/><path d="M82.2507 19.2249L58.2598 43.4546L58.4015 43.5949L82.3924 19.3652L82.2507 19.2249Z" fill="#47FAB5"/><path d="M82.3914 19.3747L58.4004 43.6044L58.5421 43.7447L82.5331 19.515L82.3914 19.3747Z" fill="#48FAB4"/><path d="M82.5515 19.5444L58.5605 43.774L58.7022 43.9143L82.6932 19.6847L82.5515 19.5444Z" fill="#49FAB4"/><path d="M82.7117 19.6738L58.7207 43.9034L58.8624 44.0437L82.8534 19.8141L82.7117 19.6738Z" fill="#4AFAB3"/><path d="M82.8523 19.8233L58.8613 44.053L59.003 44.1933L82.994 19.9636L82.8523 19.8233Z" fill="#4BFAB2"/><path d="M82.9929 19.9731L59.002 44.2028L59.1436 44.3431L83.1346 20.1134L82.9929 19.9731Z" fill="#4CFAB1"/><path d="M83.1531 20.1428L59.1621 44.3724L59.3038 44.5127L83.2948 20.2831L83.1531 20.1428Z" fill="#4DFAB0"/><path d="M83.3132 20.2723L59.3223 44.502L59.464 44.6423L83.4549 20.4126L83.3132 20.2723Z" fill="#4FFBB0"/><path d="M83.4539 20.422L59.4629 44.6516L59.6046 44.7919L83.5956 20.5623L83.4539 20.422Z" fill="#50FBAF"/><path d="M83.5945 20.5715L59.6035 44.8011L59.7452 44.9414L83.7362 20.7118L83.5945 20.5715Z" fill="#51FBAE"/><path d="M83.7341 20.7212L59.7432 44.9508L59.8849 45.0911L83.8758 20.8615L83.7341 20.7212Z" fill="#52FBAD"/><path d="M83.9148 20.8706L59.9238 45.1002L60.0655 45.2405L84.0565 21.0109L83.9148 20.8706Z" fill="#53FBAC"/><path d="M84.0554 21.0202L60.0645 45.2499L60.2061 45.3902L84.1971 21.1605L84.0554 21.0202Z" fill="#54FBAC"/><path d="M84.1961 21.1701L60.2051 45.3998L60.3468 45.5401L84.3377 21.3104L84.1961 21.1701Z" fill="#55FBAB"/><path d="M84.3562 21.2994L60.3652 45.5291L60.5069 45.6694L84.4979 21.4397L84.3562 21.2994Z" fill="#56FBAA"/><path d="M84.4959 21.4491L60.5049 45.6787L60.6466 45.819L84.6375 21.5894L84.4959 21.4491Z" fill="#57FBA9"/><path d="M84.657 21.6187L60.666 45.8484L60.8077 45.9887L84.7987 21.759L84.657 21.6187Z" fill="#58FBA8"/><path d="M84.7976 21.7684L60.8066 45.998L60.9483 46.1383L84.9393 21.9087L84.7976 21.7684Z" fill="#59FBA8"/><path d="M84.9578 21.8977L60.9668 46.1273L61.1085 46.2676L85.0995 22.038L84.9578 21.8977Z" fill="#5AFBA7"/><path d="M85.0974 22.0476L61.1064 46.2772L61.2481 46.4175L85.2391 22.1879L85.0974 22.0476Z" fill="#5BFBA6"/><path d="M85.2585 22.2173L61.2676 46.4469L61.4093 46.5872L85.4002 22.3575L85.2585 22.2173Z" fill="#5CFBA5"/><path d="M85.3992 22.3669L61.4082 46.5966L61.5499 46.7369L85.5409 22.5072L85.3992 22.3669Z" fill="#5DFBA4"/><path d="M85.5593 22.4964L61.5684 46.7261L61.7101 46.8664L85.701 22.6367L85.5593 22.4964Z" fill="#5EFBA4"/><path d="M85.699 22.6458L61.708 46.8755L61.8497 47.0158L85.8407 22.7861L85.699 22.6458Z" fill="#5FFBA3"/><path d="M85.8396 22.7955L61.8486 47.0251L61.9903 47.1654L85.9813 22.9358L85.8396 22.7955Z" fill="#60FCA2"/><path d="M85.9899 22.9357L86.1608 23.1066L62.2328 47.2625H62.0903L62.0049 47.177L85.9899 22.9357Z" fill="#61FCA1"/><path d="M86.1614 23.1066H86.1899V23.3629L62.5183 47.2625H62.2334L86.1614 23.1066Z" fill="#62FCA0"/><path d="M86.1892 23.6764L62.8309 47.2626H62.5176L86.1892 23.363V23.6764Z" fill="#63FCA0"/><path d="M86.1894 23.9612L63.1159 47.2626H62.8311L86.1894 23.6764V23.9612Z" fill="#64FC9F"/><path d="M86.1887 24.2744L63.4286 47.2624H63.1152L86.1887 23.9611V24.2744Z" fill="#65FC9E"/><path d="M86.1888 24.5878L63.7136 47.2624H63.4287L86.1888 24.2744V24.5878Z" fill="#66FC9D"/><path d="M86.1891 24.8726L63.9987 47.2624H63.7139L86.1891 24.5878V24.8726Z" fill="#67FC9C"/><path d="M86.1894 25.1861L64.3124 47.2626H63.999L86.1894 24.8728V25.1861Z" fill="#68FC9C"/><path d="M86.1896 25.471L64.5974 47.2626H64.3125L86.1896 25.1862V25.471Z" fill="#69FC9B"/><path d="M86.1899 25.7842L64.911 47.2624H64.5977L86.1899 25.4708V25.7842Z" fill="#6AFC9A"/><path d="M86.189 26.069L65.195 47.2624H64.9102L86.189 25.7842V26.069Z" fill="#6BFC99"/><path d="M86.1893 26.3824L65.5087 47.2625H65.1953L86.1893 26.0691V26.3824Z" fill="#6CFC98"/><path d="M86.1894 26.6673L65.7936 47.2625H65.5088L86.1894 26.3824V26.6673Z" fill="#6DFC98"/><path d="M86.1888 26.9806L66.0778 47.2624H65.793L86.1888 26.6672V26.9806Z" fill="#6EFC97"/><path d="M86.1891 27.2656L66.3915 47.2626H66.0781L86.1891 26.9807V27.2656Z" fill="#6FFC96"/><path d="M86.1892 27.5788L66.6765 47.2625H66.3916L86.1892 27.2655V27.5788Z" fill="#70FC95"/><path d="M86.1895 27.8637L66.9901 47.2625H66.6768L86.1895 27.5789V27.8637Z" fill="#71FD94"/><path d="M86.1896 28.1771L67.2751 47.2626H66.9902L86.1896 27.8638V28.1771Z" fill="#72FD94"/><path d="M86.189 28.462L67.5878 47.2626H67.2744L86.189 28.1771V28.462Z" fill="#73FD93"/><path d="M86.1891 28.7754L67.8727 47.2626H67.5879L86.1891 28.462V28.7754Z" fill="#74FD92"/><path d="M86.1894 29.0885L68.1579 47.2624H67.873L86.1894 28.7751V29.0885Z" fill="#75FD91"/><path d="M86.1887 29.3735L68.4706 47.2625H68.1572L86.1887 29.0886V29.3735Z" fill="#76FD90"/><path d="M86.1888 29.6869L68.7556 47.2626H68.4707L86.1888 29.3735V29.6869Z" fill="#77FD90"/><path d="M86.1891 29.9717L69.0692 47.2626H68.7559L86.1891 29.6869V29.9717Z" fill="#78FD8F"/><path d="M86.1893 30.2851L69.3542 47.2627H69.0693L86.1893 29.9718V30.2851Z" fill="#79FD8E"/><path d="M86.1896 30.5698L69.6678 47.2624H69.3545L86.1896 30.2849V30.5698Z" fill="#7AFD8D"/><path d="M86.1897 30.8832L69.9528 47.2625H69.668L86.1897 30.5698V30.8832Z" fill="#7BFD8C"/><path d="M86.189 31.168L70.237 47.2625H69.9521L86.189 30.8832V31.168Z" fill="#7CFD8C"/><path d="M86.1893 31.4814L70.5506 47.2625H70.2373L86.1893 31.1681V31.4814Z" fill="#7DFD8B"/><path d="M86.1895 31.7662L70.8356 47.2624H70.5508L86.1895 31.4813V31.7662Z" fill="#7EFD8A"/><path d="M86.1888 32.0796L71.1483 47.2625H70.835L86.1888 31.7662V32.0796Z" fill="#7FFD89"/><path d="M86.1889 32.3644L71.4333 47.2625H71.1484L86.1889 32.0796V32.3644Z" fill="#80FD88"/><path d="M86.1892 32.6778L71.7469 47.2626H71.4336L86.1892 32.3645V32.6778Z" fill="#81FD88"/><path d="M86.1893 32.9627L72.0319 47.2626H71.7471L86.1893 32.6779V32.9627Z" fill="#82FD87"/><path d="M86.1896 33.276L72.3171 47.2625H72.0322L86.1896 32.9626V33.276Z" fill="#83FE86"/><path d="M86.189 33.5893L72.6297 47.2625H72.3164L86.189 33.276V33.5893Z" fill="#84FE85"/><path d="M86.1891 33.8742L72.9147 47.2625H72.6299L86.1891 33.5894V33.8742Z" fill="#85FE84"/><path d="M86.1894 34.1876L73.2284 47.2626H72.915L86.1894 33.8743V34.1876Z" fill="#86FE84"/><path d="M86.1886 34.4725L73.5124 47.2626H73.2275L86.1886 34.1876V34.4725Z" fill="#87FE83"/><path d="M86.1889 34.7856L73.826 47.2624H73.5127L86.1889 34.4723V34.7856Z" fill="#88FE82"/><path d="M86.189 35.0705L74.111 47.2624H73.8262L86.189 34.7856V35.0705Z" fill="#89FE81"/><path d="M86.1893 35.3839L74.3962 47.2625H74.1113L86.1893 35.0706V35.3839Z" fill="#8AFE80"/><path d="M86.1896 35.6689L74.7098 47.2626H74.3965L86.1896 35.384V35.6689Z" fill="#8BFE80"/><path d="M86.1897 35.9823L74.9948 47.2626H74.71L86.1897 35.6689V35.9823Z" fill="#8CFE7F"/><path d="M86.189 36.2672L75.3075 47.2627H74.9941L86.189 35.9823V36.2672Z" fill="#8DFE7E"/><path d="M86.1892 36.5803L75.5925 47.2625H75.3076L86.1892 36.267V36.5803Z" fill="#8EFE7D"/><path d="M86.1895 36.8652L75.9061 47.2625H75.5928L86.1895 36.5803V36.8652Z" fill="#8FFE7C"/><path d="M86.1896 37.1786L76.1911 47.2625H75.9062L86.1896 36.8652V37.1786Z" fill="#90FE7C"/><path d="M86.1899 37.4919L76.5047 47.2626H76.1914L86.1899 37.1786V37.4919Z" fill="#91FE7B"/><path d="M86.1891 37.7768L76.7888 47.2626H76.5039L86.1891 37.4919V37.7768Z" fill="#92FE7A"/><path d="M86.1894 38.0901L77.0739 47.2625H76.7891L86.1894 37.7767V38.0901Z" fill="#93FE79"/><path d="M86.1897 38.3749L77.3876 47.2625H77.0742L86.1897 38.0901V38.3749Z" fill="#94FF78"/><path d="M86.1888 38.6883L77.6716 47.2626H77.3867L86.1888 38.375V38.6883Z" fill="#95FF78"/><path d="M86.1891 38.9732L77.9852 47.2626H77.6719L86.1891 38.6884V38.9732Z" fill="#96FF77"/><path d="M86.1893 39.2864L78.2702 47.2624H77.9854L86.1893 38.973V39.2864Z" fill="#97FF76"/><path d="M86.1886 39.5712L78.5829 47.2624H78.2695L86.1886 39.2864V39.5712Z" fill="#98FF75"/><path d="M86.1897 39.8848L78.8688 47.2626H78.584L86.1897 39.5714V39.8848Z" fill="#99FF74"/><path d="M86.189 40.1696L79.153 47.2626H78.8682L86.189 39.8848V40.1696Z" fill="#9AFF74"/><path d="M86.1893 40.4828L79.4667 47.2624H79.1533L86.1893 40.1694V40.4828Z" fill="#9BFF73"/><path d="M86.1894 40.7676L79.7517 47.2624H79.4668L86.1894 40.4828V40.7676Z" fill="#9CFF72"/><path d="M71.0912 49.0001C61.8048 49.0001 56.478 45.5249 56.2786 45.3539L55.3671 44.7557C55.1961 44.6418 55.0537 44.4709 54.9967 44.2715C54.9398 44.0721 54.9683 43.8727 55.0537 43.6733L56.421 40.5683C56.4495 40.5114 56.4495 40.4259 56.4495 40.3404C56.4495 40.255 56.421 40.198 56.3925 40.141C54.7973 37.5773 53.9713 34.6148 53.9997 31.5953C53.9997 28.177 55.0252 24.8157 56.9623 21.9956C58.8708 19.147 61.5769 16.9536 64.7674 15.6433C67.9293 14.333 71.4045 13.9911 74.7659 14.6748C78.1272 15.3584 81.2036 17.0106 83.6249 19.4319C86.0462 21.8532 87.6984 24.9581 88.3536 28.3195C89.0087 31.6808 88.6669 35.156 87.3566 38.318C86.0462 41.4799 83.8243 44.186 80.9758 46.0946C78.1272 48.0031 74.7659 49.0286 71.3476 49.0286H71.0912V49.0001ZM60.6369 41.7362C60.5799 41.8502 60.5515 41.9641 60.5515 42.0781C60.5515 42.192 60.5799 42.306 60.6084 42.4199C60.6654 42.5339 60.7224 42.6193 60.8078 42.7048C60.8933 42.7902 61.0072 42.8472 61.0927 42.9042C64.2546 44.0721 67.6159 44.6703 71.0057 44.6418H71.2336C73.7973 44.6418 76.3326 43.9012 78.469 42.4769C80.6054 41.0526 82.2861 39.0301 83.2831 36.6658C84.2801 34.3015 84.5365 31.6808 84.0522 29.1455C83.568 26.6103 82.3431 24.303 80.52 22.4799C78.7539 20.6853 76.4465 19.4319 73.9113 18.9192C71.3761 18.4064 68.7838 18.6628 66.391 19.6313C64.0267 20.5998 62.0042 22.2805 60.5515 24.3884C59.1272 26.5249 58.3581 29.0316 58.3296 31.5953C58.3296 34.216 59.1557 36.7512 60.7224 38.8592L61.2921 39.6568C61.3491 39.7138 61.3775 39.7992 61.3775 39.8847C61.3775 39.9701 61.3775 40.0556 61.3491 40.1126L60.6369 41.7362Z" fill="#242625"/><path fill-rule="evenodd" clip-rule="evenodd" d="M121.482 20.7991C121.71 21.2833 121.682 21.91 121.34 22.3943C121.083 22.7646 115.016 31.5667 101.371 31.5667H98.2664L98.5512 28.4048H101.656C103.223 28.4048 104.676 28.2623 105.986 28.0345L104.106 26.012L106.527 23.7616L109.604 27.0944C112.709 26.012 114.959 24.4737 116.469 23.1634H105.844C103.992 23.8755 101.941 24.5307 99.8901 25.0719L99.0925 22.0809C103.052 21.1124 107.125 19.5457 109.319 18.1499L110.629 20.0015V20.03H120.172C120.77 20.0015 121.254 20.2863 121.482 20.7991ZM127.493 21.1124C127.607 19.973 128.604 19.0614 129.743 19.0614C130.883 19.0614 131.737 19.973 131.623 21.1124C131.509 22.2519 130.512 23.1634 129.373 23.1634C128.233 23.1634 127.407 22.2519 127.493 21.1124ZM122.479 30.2279H118.292L116.811 28.1484C111.313 32.2788 102.91 33.7886 99.1494 34.2728L99.9755 37.3208C103.251 36.865 108.806 35.7826 113.877 33.3898H120.001C118.947 35.042 116.697 37.8905 112.766 39.8845L109.205 36.0105L106.784 38.2608L109.461 41.1664C107.581 41.7361 105.388 42.0779 102.91 42.0779L97.3833 42.1064L97.127 45.2683L102.653 45.2399C117.466 45.2399 122.992 34.5007 123.562 33.2758C123.79 32.7916 123.932 32.3073 123.961 31.7946C123.989 30.94 123.334 30.2279 122.479 30.2279ZM140.91 31.1394L147.091 37.8336L144.67 40.0839L139.257 34.2159C138.317 35.4692 136.95 36.922 134.728 38.973L134.671 39.0015L133.389 40.1124L131.424 37.7766L132.677 36.6941C136.865 32.8201 137.434 31.6237 138.061 30C138.061 30 138.118 29.8575 138.203 29.4018C138.374 28.5472 138.488 27.4078 138.602 26.4677L138.773 24.7871H141.935L141.764 26.5247C141.65 27.5217 141.536 28.7751 141.308 29.8006C141.194 30.2848 141.109 30.5982 141.024 30.8261C140.967 30.9685 140.938 31.0539 140.91 31.1394ZM148.658 19.5172H134.871L134.586 22.6791H148.373C149.427 22.6791 150.196 23.4483 150.11 24.3883L148.715 40.3688C148.629 41.3088 147.718 42.0779 146.692 42.0779H143.844L143.559 45.2399H146.407C149.199 45.2399 151.649 43.0465 151.877 40.3403L153.272 24.3598C153.5 21.7106 151.421 19.5172 148.658 19.5172ZM129.031 45.2968H125.869L127.521 26.2968H130.683L129.031 45.2968Z" fill="#242625"/></g><defs><clipPath id="svg_030222237e__clip0_870_51077"><path fill="#fff" transform="translate(54 11)" d="M0 0H99.301V38H0z"/></clipPath></defs></svg>