<svg width="83.2" height="24" viewBox="0 0 208 60" fill="none" xmlns="http://www.w3.org/2000/svg"><path fill-rule="evenodd" clip-rule="evenodd" d="M69.198 26.4461L64.9061 18.7245C64.8285 18.585 64.6346 18.585 64.5573 18.7245L55.7988 34.4816L69.198 26.4461Z" fill="#335B9F"/><path fill-rule="evenodd" clip-rule="evenodd" d="M66.4906 31.3152L69.197 26.4462L55.7979 34.4817L66.1235 31.6077C66.2787 31.5646 66.4107 31.4596 66.4906 31.3152" fill="#56B5BE"/><mask id="svg_25853f58fd__a" style="mask-type:alpha" maskUnits="userSpaceOnUse" x="47" y="10" width="9" height="17"><path fill-rule="evenodd" clip-rule="evenodd" d="M47.0127 10.375H55.7983V26.4459H47.0127V10.375Z" fill="#fff"/></mask><g mask="url(#svg_25853f58fd__a)"><path fill-rule="evenodd" clip-rule="evenodd" d="M55.7983 10.3749H47.2142C47.0593 10.3749 46.9622 10.5493 47.0402 10.6888L55.7983 26.4459V10.3749Z" fill="#335B9F"/></g><path fill-rule="evenodd" clip-rule="evenodd" d="M58.5052 15.2441L55.7988 10.3751V26.4461L58.5656 15.7203C58.6072 15.5595 58.5855 15.3885 58.5052 15.2441" fill="#56B5BE"/><path fill-rule="evenodd" clip-rule="evenodd" d="M42.3994 50.5528H50.9832C51.1384 50.5528 51.2352 50.3785 51.1575 50.239L42.3994 34.4818V50.5528Z" fill="#335B9F"/><path fill-rule="evenodd" clip-rule="evenodd" d="M39.6924 45.6837L42.3988 50.5527V34.4817L39.632 45.2074C39.5904 45.3679 39.6121 45.5393 39.6924 45.6837" fill="#56B5BE"/><path fill-rule="evenodd" clip-rule="evenodd" d="M35.7001 14.3927L31.4082 22.1143C31.3306 22.2538 31.4273 22.4282 31.5826 22.4282H49.0992L35.7001 14.3927Z" fill="#335B9F"/><path fill-rule="evenodd" clip-rule="evenodd" d="M41.1129 14.3927H35.7002L49.0993 22.4282L41.5404 14.5765C41.4268 14.4587 41.2731 14.3927 41.1129 14.3927" fill="#56B5BE"/><path fill-rule="evenodd" clip-rule="evenodd" d="M62.4978 46.535L66.7896 38.8134C66.8673 38.6739 66.7705 38.4995 66.6153 38.4995H49.0986L62.4978 46.535Z" fill="#335B9F"/><path fill-rule="evenodd" clip-rule="evenodd" d="M57.085 46.535H62.4978L49.0986 38.4995L56.6575 46.3513C56.7711 46.469 56.9249 46.535 57.085 46.535" fill="#56B5BE"/><path fill-rule="evenodd" clip-rule="evenodd" d="M29 34.4817L33.2919 42.2033C33.3695 42.3428 33.5634 42.3428 33.6406 42.2033L42.3991 26.4462L29 34.4817Z" fill="#335B9F"/><mask id="svg_25853f58fd__b" style="mask-type:alpha" maskUnits="userSpaceOnUse" x="29" y="26" width="14" height="9"><path fill-rule="evenodd" clip-rule="evenodd" d="M29 26.446H42.3991V34.4815H29V26.446Z" fill="#fff"/></mask><g mask="url(#svg_25853f58fd__b)"><path fill-rule="evenodd" clip-rule="evenodd" d="M31.7064 29.6125L29 34.4815L42.3991 26.446L32.0735 29.32C31.9186 29.3632 31.7866 29.4682 31.7064 29.6125" fill="#56B5BE"/></g><mask id="svg_25853f58fd__c" style="mask-type:alpha" maskUnits="userSpaceOnUse" x="29" y="10" width="150" height="41"><path fill-rule="evenodd" clip-rule="evenodd" d="M29 50.5529H178.67V10.375H29V50.5529Z" fill="#fff"/></mask><g mask="url(#svg_25853f58fd__c)" fill-rule="evenodd" clip-rule="evenodd"><path d="M83.4236 40.4012H101.344V35.6207H83.4236V40.4012zM81.8873 48.4364H103.206V46.5471H83.4236V42.2219H102.755C103.004 42.2219 103.206 42.0201 103.206 41.7711V34.1684C103.206 33.9194 103.004 33.7176 102.755 33.7176H83.4236V29.134H103.206V27.2905H81.8873C81.6383 27.2905 81.4365 27.4922 81.4365 27.7412V47.9856C81.4365 48.2346 81.6383 48.4364 81.8873 48.4364V48.4364zM108.204 29.7644H126.492V28.6446H108.204V29.7644zM108.204 32.2382H126.492V31.1185H108.204V32.2382zM108.205 27.2905H106.959C106.71 27.2905 106.508 27.4922 106.508 27.7412V28.6446 29.7644 31.1185 32.2382 33.1416C106.508 33.391 106.71 33.5927 106.959 33.5927H108.205 126.492 127.738C127.987 33.5927 128.189 33.391 128.189 33.1416V32.2382 31.1185 29.7644 28.6446 27.7412C128.189 27.4922 127.987 27.2905 127.738 27.2905H126.492 108.205zM106.508 36.0666H128.189V34.7121H106.508V36.0666zM126.267 39.6602H118.224V38.5405H126.267C126.391 38.5405 126.492 38.6414 126.492 38.7659V39.4349C126.492 39.5594 126.391 39.6602 126.267 39.6602V39.6602zM126.267 42.1341H118.224V41.0147H126.267C126.391 41.0147 126.492 41.1156 126.492 41.2401V41.9087C126.492 42.0332 126.391 42.1341 126.267 42.1341V42.1341zM108.205 42.1345H116.473V41.0147H108.205V42.1345zM108.205 39.6602H116.473V38.5405H108.205V39.6602zM108.205 37.1864H106.959C106.71 37.1864 106.508 37.3881 106.508 37.6371V38.5405 39.6602 41.0147 42.1341 43.0379C106.508 43.2869 106.71 43.4886 106.959 43.4886H108.205 116.473V44.6084H106.508V45.9625H116.473V47.0822H106.508V48.4364H116.473 118.224 128.189V47.0822H118.224V45.9625H128.189V44.6084H118.224V43.4886H126.492 127.738C127.987 43.4886 128.189 43.2869 128.189 43.0379V42.1341 41.0147 39.6602 38.5405 37.6371C128.189 37.3881 127.987 37.1864 127.738 37.1864H126.492 108.205zM151.048 48.4364H152.871V27.2901H151.048V48.4364zM131.49 29.0882H143.785V33.2863H131.941C131.692 33.2863 131.49 33.4881 131.49 33.7371V40.828C131.49 41.0766 131.692 41.2787 131.941 41.2787H143.735V45.6523C143.735 46.2182 143.294 46.7893 142.306 46.7893H132.113L133.064 48.4363H143.172C144.514 48.4363 145.602 47.3488 145.602 46.0071V39.9681C145.602 39.7195 145.4 39.5173 145.151 39.5173H133.23V35.0065H145.151C145.4 35.0065 145.602 34.8047 145.602 34.5557V27.7412C145.602 27.4922 145.4 27.2905 145.151 27.2905H131.49V29.0882zM158.717 35.3962V34.1688C158.717 34.0893 158.781 34.0248 158.861 34.0248H163.79C163.869 34.0248 163.934 34.0893 163.934 34.1688V35.3962C163.934 35.4761 163.869 35.5406 163.79 35.5406H158.861C158.781 35.5406 158.717 35.4761 158.717 35.3962V35.3962zM159.129 30.2801H164.94V29.3013H159.129V30.2801zM169.818 31.065C170.485 32.448 171.353 33.594 172.284 34.536 171.162 35.4611 169.752 36.2966 167.998 36.8403V33.3682C168.483 32.9268 169.186 32.1731 169.818 31.065V31.065zM173.46 33.4353C171.876 31.806 170.997 30.099 170.64 29.3013H176.11C175.863 29.9441 175.087 31.7085 173.46 33.4353V33.4353zM174.606 34.4857C175.901 33.1488 177.054 31.4426 177.693 29.3013H178.661V27.8141H171.022C171.075 27.5523 171.122 27.2816 171.16 27.0007H169.582C169.582 27.0007 169.197 29.3981 167.998 30.8606V30.7308C167.998 30.4822 167.796 30.2801 167.547 30.2801H166.44V29.3013H167.998V27.8141H166.44V27.0007H164.94V27.8141H159.129V27.0007H157.629V27.8141H156.173V29.3013H157.629V30.6018C157.087 31.5127 156.173 32.1978 156.173 32.1978V34.1748C156.565 33.9003 156.911 33.624 157.216 33.3536V35.5406 36.5077C157.216 36.7567 157.418 36.9585 157.667 36.9585H158.717 164.981C165.229 36.9585 165.432 36.7567 165.432 36.5077V33.0476C165.432 32.7986 165.229 32.5968 164.98 32.5972L157.979 32.6058C158.29 32.2668 158.534 31.9533 158.719 31.6871H166.416V36.7308C166.416 37.0995 166.135 37.398 165.787 37.398H163.889L164.576 38.7757H166.416C167.173 38.7757 167.804 38.1255 167.96 37.3492V38.6643C167.96 38.6643 170.756 37.809 173.429 35.5762 175.713 37.4411 178.039 38.229 178.561 38.3902 177.501 38.5353 173.203 39.0738 167.793 39.0738H157.216V40.4943H167.413V41.7018H157.216V43.1223H167.413V44.289H157.216V45.7095H167.413V46.3072C167.413 46.6938 167.1 47.0073 166.713 47.0073H163.36L164.185 48.4365H167.762C168.509 48.4365 169.115 47.8305 169.115 47.0831V45.7095H178.67V44.289H169.115V43.1223H178.67V41.7018H169.115V40.4883L169.299 40.4861C173.862 40.4141 177.84 39.8936 178.67 39.7897V38.4225 38.3752 36.6753C177.045 36.1695 175.702 35.3767 174.606 34.4857V34.4857z" fill="#335B9F"/><path d="M82.204 21.2095H87.7161V13.2948H82.204V21.2095zM87.7731 22.0131H82.1474C81.7353 22.0131 81.4004 21.6783 81.4004 21.2665V13.2381C81.4004 12.826 81.7353 12.4911 82.1474 12.4911H87.7731C88.1849 12.4911 88.5198 12.826 88.5198 13.2381V21.2665C88.5198 21.6783 88.1849 22.0131 87.7731 22.0131V22.0131zM125.865 22.0131H120.099C119.687 22.0131 119.353 21.6783 119.353 21.2665V13.2381C119.353 12.826 119.687 12.4911 120.099 12.4911H125.865V13.2948H120.156V21.2095H125.865V22.0131zM95.1636 22.0131H90.4371C90.0253 22.0131 89.6904 21.6782 89.6904 21.2665V15.7746C89.6904 15.3629 90.0253 15.028 90.4371 15.028H95.1636V15.8316H90.4941V21.2095H95.1636V22.0131zM115.091 22.0131H114.287V15.8316H110.425V22.0131H109.621V15.7746C109.621 15.3629 109.956 15.028 110.368 15.028H114.344C114.756 15.028 115.091 15.3629 115.091 15.7746V22.0131zM132.573 22.0131H131.769V15.8316H127.907V22.0131H127.103V15.7746C127.103 15.3629 127.438 15.028 127.85 15.028H131.826C132.237 15.028 132.573 15.3629 132.573 15.7746V22.0131zM148.034 22.0131H147.231V15.8316H143.368V22.0131H142.564V15.7746C142.564 15.3629 142.9 15.028 143.311 15.028H147.288C147.699 15.028 148.034 15.3629 148.034 15.7746V22.0131zM140.522 22.0131H141.326V15.028H140.522V22.0131zM140.522 14.122H141.326V13.0514H140.522V14.122zM97.1376 18.3366H101.003V15.8316H97.1376V18.3366zM101.696 22.0131H97.0806C96.6692 22.0131 96.334 21.6782 96.334 21.2665V15.7746C96.334 15.3629 96.6692 15.028 97.0806 15.028H101.06C101.472 15.028 101.807 15.3629 101.807 15.7746V18.3932C101.807 18.805 101.472 19.1402 101.06 19.1402H97.1376V21.2095H101.696V22.0131zM149.965 18.3366H153.831V15.8316H149.965V18.3366zM154.523 22.0131H149.908C149.496 22.0131 149.161 21.6782 149.161 21.2665V15.7746C149.161 15.3629 149.496 15.028 149.908 15.028H153.888C154.299 15.028 154.634 15.3629 154.634 15.7746V18.3932C154.634 18.805 154.299 19.1402 153.888 19.1402H149.965V21.2095H154.523V22.0131zM103.781 21.2095H107.647V18.7045H103.781V21.2095zM107.704 22.0131H103.724C103.312 22.0131 102.978 21.6782 102.978 21.2665V18.6479C102.978 18.2361 103.312 17.9012 103.724 17.9012H107.647V15.8316H103.126V15.028H107.704C108.115 15.028 108.45 15.3629 108.45 15.7746V21.2665C108.45 21.6782 108.115 22.0131 107.704 22.0131V22.0131zM134.614 19.9217H138.48V15.8316H134.614V19.9217zM138.537 23.5982H133.959V22.7946H138.48V20.725H134.557C134.145 20.725 133.811 20.3901 133.811 19.9784V15.7746C133.811 15.3629 134.145 15.028 134.557 15.028H138.537C138.949 15.028 139.283 15.3629 139.283 15.7746V22.8516C139.283 23.2634 138.949 23.5982 138.537 23.5982V23.5982z" fill="#56B5BE"/><path d="M119.353 17.7696H125.865V16.966H119.353V17.7696Z" fill="#56B5BE"/></g></svg>