<svg width="83.2" height="24" viewBox="0 0 208 60" fill="none" xmlns="http://www.w3.org/2000/svg"><g clip-path="url(#svg_1f3f72044c__clip0_870_51290)"><path d="M84.6964 26.5216H83.2011V20.3327H80.3662V40.3683H83.2011V29.491C83.2011 29.2722 83.3569 29.1159 83.5749 29.1159H84.6964V43.4315H87.5313V18.8949H84.6964V26.5216 26.5216zM105.756 20.1139C105.787 19.7076 105.787 19.3012 105.787 18.8949H102.89C102.89 19.3012 102.859 19.7076 102.828 20.1139H94.4789C94.4477 19.7076 94.4166 19.3012 94.4166 18.8949H91.5194C91.5194 19.3012 91.5194 19.7076 91.5505 20.1139H91.5194 88.9648V22.0831H108.342V20.1139H105.787 105.756zM88.9648 25.3338H97.2203V26.584H88.9648V28.3969H97.2203V29.6472H89.1829V35.0234C89.1829 36.3049 90.211 37.3364 91.4882 37.3364H97.2203V38.5867H88.9648V40.3371H97.2203V41.5873H88.9648V43.4002H108.342V41.5873H100.086V40.3371H108.342V38.5867H100.086V37.3364H105.32 108.124V31.9602C108.124 30.6787 107.096 29.6472 105.818 29.6472H100.086V28.3969H108.342V26.584H100.086V25.3338H108.342V23.5209H88.9648V25.3338zM91.2078 31.3976H97.2203V32.6166H91.2078V32.3666 31.3976zM91.2078 35.2109V34.367H97.2203V35.586H91.5817C91.3636 35.586 91.2078 35.4297 91.2078 35.2109zM105.32 35.586H100.086V34.367H106.099V35.586H105.32zM106.099 31.7727V32.6166H100.086V31.3976H105.725C105.943 31.3976 106.099 31.5539 106.099 31.7727zM166.379 26.7717H165.382C165.444 26.084 165.506 25.3651 165.506 24.6775H162.578C162.578 25.3964 162.516 26.084 162.453 26.7717H157.282 156.098 149.525C149.432 26.084 149.4 25.3651 149.4 24.6775H146.472C146.472 25.3964 146.503 26.084 146.597 26.7717H145.195C143.388 26.7717 141.924 28.2408 141.924 30.0537V32.8668H144.821V30.0537C144.821 29.8349 144.977 29.6786 145.195 29.6786H156.098 157.282 166.379C166.597 29.6786 166.752 29.8349 166.752 30.0537V32.8668H169.65V30.0537C169.65 28.2408 168.186 26.7717 166.379 26.7717z" fill="#040000"/><path d="M164.634 33.4919H159.4 157.282V31.679H154.385V33.4919H154.354 147.313C145.506 33.4919 144.042 34.9609 144.042 36.7738V41.9312H146.939V36.7738C146.939 36.555 147.095 36.3987 147.313 36.3987H154.354 154.385V43.4315H157.282V36.3987H159.4 164.634C164.852 36.3987 165.008 36.555 165.008 36.7738V41.9312H167.905V36.7738C167.905 34.9609 166.441 33.4919 164.634 33.4919zM157.283 20.0514V18.8949H154.386V20.0514H141.956V22.927H169.713V20.0514H157.283zM120.522 18.8949H117.251L116.628 20.0201H111.363V22.927H115.07L112.391 27.8656C111.831 28.8971 111.768 30.1474 112.36 31.1788 112.952 32.2416 114.011 32.8667 115.226 32.8667H125.133V36.2737H111.363V39.1806H125.133V43.4628H128.03V39.1493H139.12V36.2424H128.03V32.8354H139.12V29.9286H128.03V26.3653H125.133V29.9598H115.195C114.915 29.9598 114.728 29.6473 114.852 29.3972L118.373 22.9583H139.151V20.0514H119.961L120.522 18.8949z" fill="#040000"/><path d="M67.5 20.2077C60.6464 13.3312 49.5249 13.3312 42.6402 20.2077C35.7866 27.0842 35.7866 38.2429 42.6402 45.1506L47.2508 40.5246C46.285 39.5557 45.5374 38.4304 44.9766 37.1801C48.1854 36.3362 51.581 35.8673 55.0701 35.8673C58.5592 35.8673 61.9237 36.3362 65.1324 37.1801C64.5716 38.4304 63.824 39.5557 62.8583 40.4934L67.4688 45.1194C74.3536 38.2741 74.3536 27.1154 67.5 20.2077ZM44.2601 30.4287C45.2882 25.3963 49.743 21.6142 55.0701 21.6142C60.3972 21.6142 64.852 25.3963 65.8801 30.4287C58.7773 28.7408 51.3629 28.7408 44.2601 30.4287Z" fill="#FFCC32"/></g><defs><clipPath id="svg_1f3f72044c__clip0_870_51290"><path fill="#fff" transform="translate(37.5 15.05)" d="M0 0H132.212V30.1H0z"/></clipPath></defs></svg>