<svg width="83.2" height="24" viewBox="0 0 208 60" fill="none" xmlns="http://www.w3.org/2000/svg"><g clip-path="url(#svg_af4ef50113__clip0_899_71584)"><path d="M71.3876 28.1054C71.9196 27.734 72.3512 27.2923 72.6624 26.7704 73.0639 26.1179 73.2647 25.3852 73.2647 24.6022 73.2647 23.6687 73.0438 22.8155 72.6223 22.0627 72.1906 21.3099 71.5583 20.6876 70.7352 20.1957 70.2534 19.9046 69.6411 19.7039 68.9184 19.5734 68.2057 19.4529 67.232 19.3927 66.0275 19.3927H61.4805V38.2133H68.3864C70.1329 38.2133 71.6185 37.6913 72.7929 36.6675 73.9774 35.6336 74.5796 34.3488 74.5796 32.8331 74.5796 31.6185 74.2684 30.5847 73.6461 29.7515 73.1041 29.0489 72.3513 28.4868 71.3876 28.1054zM69.6411 26.5897C69.089 27.0615 68.286 27.2923 67.2521 27.2923H64.3312V21.9322H67.0915C68.2258 21.9322 69.079 22.1631 69.6411 22.6148 70.1932 23.0665 70.4541 23.7189 70.4541 24.6223 70.4541 25.4855 70.1831 26.128 69.6411 26.5897zM64.3312 29.882H67.8042C69.089 29.882 70.0627 30.133 70.7051 30.6148 71.3374 31.0966 71.6386 31.7791 71.6386 32.7227 71.6386 33.6763 71.3274 34.3689 70.675 34.8507 70.0125 35.3425 69.0087 35.5935 67.7038 35.5935H64.3211V29.882H64.3312zM93.7412 22.0728H91.0311V25.1443H88.8629 86.8654 85.8918L82.5392 33.2648C82.479 33.4053 82.3786 33.6964 82.218 34.1682 82.1277 34.4492 82.0173 34.7604 81.9069 35.1117 81.7964 34.7303 81.7061 34.4091 81.6158 34.128 81.4251 33.5157 81.3548 33.335 81.3247 33.2648L78.0123 25.1443H75.001L80.3711 37.9825 78.0524 43.453H80.8228L87.8291 27.4931H91.0311V35.3727C91.0311 36.4869 91.292 37.31 91.824 37.8018 92.346 38.2936 93.2092 38.5446 94.3937 38.5446H95.8893V35.9448H94.484C94.223 35.9448 94.0323 35.8846 93.9319 35.7642 93.8215 35.6337 93.7613 35.4128 93.7613 35.1017V27.4931H95.8993V25.1443H93.7613V22.0728H93.7412zM103.879 24.8231C101.892 24.8231 100.256 25.4755 99.021 26.7503 97.7864 28.0251 97.1641 29.7114 97.1641 31.7691 97.1641 32.6424 97.3146 33.4855 97.6158 34.2785 97.9169 35.0715 98.3485 35.7842 98.9106 36.3864 99.543 37.069 100.316 37.611 101.209 37.9824 102.093 38.3538 103.056 38.5445 104.08 38.5445 105.315 38.5445 106.439 38.3136 107.423 37.8519 108.406 37.3902 109.32 36.6775 110.143 35.7139L110.303 35.5232 108.316 33.9372 108.165 34.1079C107.603 34.7503 106.981 35.2421 106.308 35.5734 105.646 35.9046 104.913 36.0652 104.14 36.0652 102.936 36.0652 101.932 35.7239 101.149 35.0414 100.416 34.409 100.015 33.6261 99.8943 32.6424H110.715V32.2409C110.715 30.0326 110.083 28.2258 108.828 26.8707 107.573 25.5157 105.907 24.8231 103.879 24.8231zM101.149 28.2258C101.892 27.5934 102.805 27.2722 103.849 27.2722 104.883 27.2722 105.766 27.5834 106.489 28.2057 107.141 28.7679 107.553 29.5106 107.724 30.394H99.8943C100.055 29.5307 100.476 28.798 101.149 28.2258zM125.741 21.7917C123.914 20.2057 121.214 19.3927 117.741 19.3927H113.706V38.2133H117.741C121.224 38.2133 123.914 37.4103 125.741 35.8143 127.578 34.2183 128.512 31.8595 128.512 28.808 128.522 25.7566 127.588 23.3977 125.741 21.7917zM118.103 35.5834H116.577V22.0326H118.103C120.592 22.0326 122.489 22.6047 123.744 23.739 124.988 24.8632 125.621 26.5696 125.621 28.808 125.621 31.0364 124.988 32.7428 123.744 33.877 122.489 35.0113 120.592 35.5834 118.103 35.5834zM140.818 26.7904C140.316 26.2584 139.744 25.8268 139.092 25.5056 138.258 25.0941 137.325 24.8933 136.321 24.8933 134.344 24.8933 132.728 25.5156 131.513 26.7603 130.309 27.9949 129.696 29.6411 129.696 31.6386 129.696 32.5621 129.847 33.4353 130.158 34.2183 130.469 35.0113 130.931 35.734 131.533 36.3563 132.166 37.0087 132.908 37.5106 133.731 37.8619 134.555 38.2032 135.428 38.3739 136.331 38.3739 137.345 38.3739 138.268 38.1831 139.051 37.7917 139.654 37.5006 140.186 37.089 140.647 36.5771V38.2032H143.347V25.1443H140.808V26.7904H140.818zM139.603 28.547C140.376 29.35 140.768 30.404 140.768 31.6587 140.768 32.9234 140.376 33.9774 139.603 34.7804 138.831 35.5834 137.837 35.9849 136.632 35.9849 135.428 35.9849 134.434 35.5834 133.661 34.7804 132.888 33.9874 132.497 32.9335 132.497 31.6587 132.497 30.3939 132.888 29.34 133.661 28.537 134.434 27.734 135.428 27.3325 136.632 27.3325 137.837 27.3425 138.841 27.744 139.603 28.547zM151.659 24.8933C150.926 24.8933 150.223 25.0439 149.581 25.335 149.089 25.5558 148.617 25.867 148.165 26.2685V25.1443H145.485V38.2233H148.165V30.9962C148.165 29.7515 148.426 28.818 148.948 28.2158 149.46 27.6235 150.243 27.3224 151.267 27.3224 152.17 27.3224 152.813 27.5934 153.224 28.1455 153.646 28.7177 153.867 29.6411 153.867 30.9059V38.2233H156.567V30.685C156.567 28.9084 156.125 27.483 155.252 26.4592 154.379 25.4253 153.174 24.8933 151.659 24.8933zM167.387 34.7603C167.046 35.1919 166.645 35.5131 166.163 35.734 165.681 35.9548 165.119 36.0652 164.497 36.0652 163.332 36.0652 162.409 35.6738 161.676 34.8507 160.953 34.0376 160.582 32.9736 160.582 31.6788 160.582 30.3839 160.953 29.3099 161.686 28.4868 162.419 27.6637 163.342 27.2622 164.497 27.2622 165.089 27.2622 165.621 27.3626 166.072 27.5533 166.524 27.744 166.936 28.0552 167.297 28.4567L167.478 28.6574 169.224 26.6399 169.054 26.4893C168.441 25.9372 167.749 25.5056 166.996 25.2346 166.253 24.9636 165.41 24.8231 164.497 24.8231 163.533 24.8231 162.64 24.9837 161.827 25.3049 161.013 25.6261 160.301 26.1079 159.689 26.7202 159.046 27.3626 158.564 28.1154 158.233 28.9586 157.912 29.7917 157.741 30.7152 157.741 31.6788 157.741 32.6424 157.902 33.5658 158.233 34.399 158.564 35.2321 159.046 35.9849 159.689 36.6273 160.291 37.2396 161.003 37.7214 161.827 38.0426 162.64 38.3638 163.533 38.5244 164.497 38.5244 165.43 38.5244 166.273 38.3739 167.026 38.0928 167.779 37.8017 168.492 37.35 169.174 36.7277L169.345 36.5671 167.558 34.5194 167.387 34.7603zM184 32.2509C184 30.0427 183.368 28.2359 182.113 26.8808 180.858 25.5157 179.192 24.8331 177.164 24.8331 175.177 24.8331 173.541 25.4856 172.306 26.7604 171.072 28.0351 170.449 29.7215 170.449 31.7792 170.449 32.6525 170.6 33.4956 170.901 34.2886 171.202 35.0816 171.634 35.7942 172.196 36.3965 172.838 37.0791 173.611 37.6211 174.494 37.9925 175.378 38.3639 176.341 38.5546 177.365 38.5546 178.6 38.5546 179.724 38.3237 180.708 37.862 181.691 37.4003 182.605 36.6876 183.428 35.724L183.588 35.5333 181.611 33.9473 181.46 34.1179C180.898 34.7604 180.276 35.2522 179.604 35.5834 178.931 35.9147 178.208 36.0753 177.435 36.0753 176.231 36.0753 175.227 35.734 174.444 35.0514 173.711 34.4191 173.31 33.6361 173.189 32.6525H184V32.2509zM174.434 28.2259C175.177 27.5935 176.09 27.2723 177.134 27.2723 178.168 27.2723 179.051 27.5834 179.774 28.2058 180.427 28.7679 180.838 29.5107 181.009 30.394H173.179C173.34 29.5307 173.762 28.798 174.434 28.2259z" fill="#325AB4"/><path d="M39.6084 25.064L44.4365 23.8293V36.7478L39.6084 35.5132V25.064Z" fill="#00C8D2"/><path d="M36.4567 38.665L31.6387 39.8996V26.9811L36.4567 28.2158V38.665Z" fill="#3C8CFF"/><path d="M52.0954 39.2873L47.2773 40.522V16L52.0954 17.2346V39.2873Z" fill="#78E6DC"/><path d="M28.8181 38.0025L24 39.2371V17.2848L28.8181 18.5194V38.0025Z" fill="#325AB4"/></g><defs><clipPath id="svg_af4ef50113__clip0_899_71584"><path fill="#fff" transform="translate(24 16)" d="M0 0H160V27.443H0z"/></clipPath></defs></svg>